<svg xmlns="http://www.w3.org/2000/svg" viewBox="0 0 900 650" style="font-family: -apple-system, BlinkMacSystemFont, 'Segoe UI', Arial, sans-serif;">
  <!-- Background -->
  <rect width="900" height="650" fill="#f8f9fa"/>
  
  <!-- Title -->
  <text x="450" y="45" text-anchor="middle" font-size="32" font-weight="bold" fill="#2c3e50">
    How Vocabeey Works
  </text>
  
  <!-- Step 1: Reading Article -->
  <g transform="translate(80, 90)">
    <rect x="0" y="0" width="220" height="130" rx="12" fill="#fff" stroke="#3498db" stroke-width="3"/>
    <text x="110" y="35" text-anchor="middle" font-size="20" font-weight="bold" fill="#3498db">
      1. Read Any Article
    </text>
    <rect x="25" y="55" width="170" height="10" rx="3" fill="#e0e0e0"/>
    <rect x="25" y="72" width="150" height="10" rx="3" fill="#e0e0e0"/>
    <rect x="25" y="89" width="160" height="10" rx="3" fill="#e0e0e0"/>
    <circle cx="190" cy="110" r="14" fill="#3498db"/>
    <text x="190" y="117" text-anchor="middle" font-size="20" fill="#fff" font-weight="bold">+</text>
  </g>
  
  <!-- Arrow 1 -->
  <path d="M 300 155 L 360 155" stroke="#95a5a6" stroke-width="4" fill="none" marker-end="url(#arrowhead)"/>
  
  <!-- Step 2: AI Detection -->
  <g transform="translate(360, 90)">
    <rect x="0" y="0" width="220" height="130" rx="12" fill="#fff" stroke="#9b59b6" stroke-width="3"/>
    <text x="110" y="35" text-anchor="middle" font-size="20" font-weight="bold" fill="#9b59b6">
      2. AI Detects Language
    </text>
    <circle cx="110" cy="85" r="32" fill="#f3e5f5"/>
    <text x="110" y="96" text-anchor="middle" font-size="36">🤖</text>
  </g>
  
  <!-- Arrow 2 -->
  <path d="M 470 220 L 470 270" stroke="#95a5a6" stroke-width="4" fill="none" marker-end="url(#arrowhead)"/>
  
  <!-- Step 3: Highlight Words -->
  <g transform="translate(360, 270)">
    <rect x="0" y="0" width="220" height="130" rx="12" fill="#fff" stroke="#e74c3c" stroke-width="3"/>
    <text x="110" y="35" text-anchor="middle" font-size="20" font-weight="bold" fill="#e74c3c">
      3. Highlight Words
    </text>
    <text x="110" y="70" text-anchor="middle" font-size="17" fill="#333">
      Click any word or
    </text>
    <text x="110" y="92" text-anchor="middle" font-size="17" fill="#333">
      sentence to learn
    </text>
    <rect x="75" y="105" width="70" height="18" rx="4" fill="#ffe082"/>
    <text x="110" y="118" text-anchor="middle" font-size="14" fill="#333" font-weight="bold">word</text>
  </g>
  
  <!-- Arrow 3 -->
  <path d="M 360 335 L 300 335" stroke="#95a5a6" stroke-width="4" fill="none" marker-end="url(#arrowhead)"/>
  
  <!-- Step 4: Instant Flashcard -->
  <g transform="translate(80, 270)">
    <rect x="0" y="0" width="220" height="130" rx="12" fill="#fff" stroke="#27ae60" stroke-width="3"/>
    <text x="110" y="35" text-anchor="middle" font-size="20" font-weight="bold" fill="#27ae60">
      4. Instant Flashcard
    </text>
    <rect x="25" y="50" width="170" height="65" rx="6" fill="#e8f5e9" stroke="#27ae60" stroke-width="2"/>
    <text x="110" y="73" text-anchor="middle" font-size="16" fill="#333" font-weight="bold">
      Translation
    </text>
    <circle cx="60" cy="97" r="12" fill="#27ae60"/>
    <text x="60" y="103" text-anchor="middle" font-size="18" fill="#fff">▶</text>
    <text x="115" y="101" text-anchor="middle" font-size="14" fill="#666">
      Audio
    </text>
  </g>
  
  <!-- Arrow 4 -->
  <path d="M 190 400 L 190 450" stroke="#95a5a6" stroke-width="4" fill="none" marker-end="url(#arrowhead)"/>
  
  <!-- Step 5: Learn & Practice -->
  <g transform="translate(80, 450)">
    <rect x="0" y="0" width="220" height="130" rx="12" fill="#fff" stroke="#f39c12" stroke-width="3"/>
    <text x="110" y="35" text-anchor="middle" font-size="20" font-weight="bold" fill="#f39c12">
      5. Learn &amp; Practice
    </text>
    <text x="110" y="70" text-anchor="middle" font-size="17" fill="#333">
      Save to your
    </text>
    <text x="110" y="92" text-anchor="middle" font-size="17" fill="#333">
      personal collection
    </text>
    <text x="110" y="118" text-anchor="middle" font-size="28">📚</text>
  </g>
  
  <!-- Benefits Box -->
  <g transform="translate(600, 270)">
    <rect x="0" y="0" width="260" height="160" rx="12" fill="#ecf0f1" stroke="#34495e" stroke-width="3"/>
    <text x="130" y="35" text-anchor="middle" font-size="22" font-weight="bold" fill="#34495e">
      ✨ Benefits
    </text>
    <text x="25" y="70" font-size="16" fill="#2c3e50">
      ✓ Learn from real content
    </text>
    <text x="25" y="98" font-size="16" fill="#2c3e50">
      ✓ Instant translations
    </text>
    <text x="25" y="126" font-size="16" fill="#2c3e50">
      ✓ Audio pronunciation
    </text>
    <text x="25" y="154" font-size="16" fill="#2c3e50">
      ✓ Works offline
    </text>
  </g>
  
  <!-- Arrow marker definition -->
  <defs>
    <marker id="arrowhead" markerWidth="12" markerHeight="12" refX="10" refY="3.5" orient="auto">
      <polygon points="0 0, 12 3.5, 0 7" fill="#95a5a6"/>
    </marker>
  </defs>
  
  <!-- Footer -->
  <text x="450" y="625" text-anchor="middle" font-size="16" fill="#7f8c8d" font-style="italic">
    Turn any article into your language learning playground
  </text>
</svg>
